RO: Documentarul dezvăluie câteva dintre complexele frământări ale artiştilor fotografi, care imortealizează în imagini tragediile războaielor. Martori lucizi, aceştia îşi trasformă adesea aparatul de fotografiat în armă împotriva uitării.
 
http://us.imdb.com/title/tt1566419/

   General

      Language: English
      Subtitle: Romanian      
      Format : AVI
      Format/Info : Audio Video Interleave
      File size : 302 MiB
      Duration : 51mn 19s
      Overall bit rate : 821 Kbps

   Video 

      ID : 0
      Format : MPEG-4 Visual
      Format profile : AdvancedSimple@L5
      Format settings, BVOP : Yes
      Format settings, QPel : No
      Format settings, GMC : No warppoints
      Format settings, Matrix : Default (H.263)
      Codec ID : XVID
      Codec ID/Hint : XviD
      Duration : 51mn 19s
      Bit rate : 681 Kbps
      Width : 512 pixels
      Height : 384 pixels
      Display aspect ratio : 4:3
      Frame rate : 25.000 fps
      Resolution : 24 bits
      Colorimetry : 4:2:0
      Scan type : Progressive
      Bits/(Pixel*Frame) : 0.139
      Stream size : 250 MiB (83%)
      Writing library : XviD 1.2.1 (UTC 2008-12-04)

   Audio 

      ID : 1
      Format : MPEG Audio
      Format version : Version 1
      Format profile : Layer 3
      Codec ID : 55
      Codec ID/Hint : MP3
      Duration : 51mn 19s
      Bit rate mode : Constant
      Bit rate : 128 Kbps
      Channel(s) : 2 channels
      Sampling rate : 44.1 KHz
      Resolution : 16 bits
      Stream size : 47.0 MiB (16%)
      Alignment : Split accross interleaves
      Interleave, duration : 26 ms (0.65 video frame)